<svg xmlns="http://www.w3.org/2000/svg" width="19" height="19" viewBox="0 0 19 19">
  <g id="icon-deselect" transform="translate(6045 1397)">
    <circle id="Ellipse_430" data-name="Ellipse 430" cx="9.5" cy="9.5" r="9.5" transform="translate(-6045 -1397)" fill="#ff8933"/>
    <g id="icon-deselect-2" data-name="icon-deselect" transform="translate(-6038 -1390)">
      <g id="Close" transform="translate(0.119 0.119)">
        <g id="Rectangle" transform="translate(0.394 0) rotate(45)" stroke-linecap="round" stroke-linejoin="round">
          <path d="M -0.5181701183319092 1.076005816459656 L -0.499700129032135 0.5405958294868469 L -0.4877901375293732 0.1953558474779129 L -0.471700131893158 -0.2710241377353668 L -0.005320134107023478 -0.2871041595935822 L 6.159889698028564 -0.4997041523456573 L 6.695280075073242 -0.5181741714477539 L 6.676819801330566 0.01721585169434547 L 6.664919853210449 0.3624558448791504 L 6.648849964141846 0.8288558721542358 L 6.182449817657471 0.8449358344078064 L 0.01722986623644829 1.057535886764526 L -0.5181701183319092 1.076005816459656 Z" stroke="none"/>
          <path d="M 6.177119731903076 -4.172325134277344e-06 L 0.01189994812011719 0.2125958502292633 L 0 0.5578358769416809 L 6.165209770202637 0.3452358543872833 L 6.177119731903076 -4.172325134277344e-06 M 6.17715311050415 -1.000008583068848 C 6.441895961761475 -1.000008583068848 6.696364402770996 -0.8949694037437439 6.88422966003418 -0.7071041464805603 C 7.080229759216309 -0.5111041665077209 7.186079978942871 -0.2425441741943359 7.176529884338379 0.03447586297988892 L 7.164619922637939 0.3797158598899841 C 7.146499633789063 0.9049458503723145 6.724909782409668 1.326525926589966 6.19966983795166 1.344645857810974 L 0.03446006774902344 1.557245850563049 C 0.02294588088989258 1.557642817497253 0.01144504547119141 1.557840347290039 -3.480911254882813e-05 1.557840347290039 C -0.2647509574890137 1.557840347290039 -0.5192470550537109 1.452799081802368 -0.7070999145507813 1.264945864677429 C -0.9031000137329102 1.068955898284912 -1.008950233459473 0.8004058599472046 -0.9994101524353027 0.5233858823776245 L -0.9875102043151855 0.1781458556652069 C -0.9693999290466309 -0.3470941185951233 -0.5478100776672363 -0.7686941027641296 -0.02256011962890625 -0.7868141531944275 L 6.142659664154053 -0.9994141459465027 C 6.154157161712646 -0.999810516834259 6.165689468383789 -1.000008583068848 6.17715311050415 -1.000008583068848 Z" stroke="none"/>
        </g>
        <g id="Rectangle-2" data-name="Rectangle" transform="translate(0 4.368) rotate(-45)" stroke-linecap="round" stroke-linejoin="round">
          <path d="M 6.695280075073242 1.076005816459656 L 6.159889698028564 1.057535886764526 L -0.005320134107023478 0.8449358344078064 L -0.471700131893158 0.8288558721542358 L -0.4877901375293732 0.3624758422374725 L -0.499700129032135 0.01723585277795792 L -0.5181701183319092 -0.5181741714477539 L 0.01722986623644829 -0.4997041523456573 L 6.182449817657471 -0.2871041595935822 L 6.648849964141846 -0.2710241377353668 L 6.664919853210449 0.1953758597373962 L 6.676819801330566 0.5406158566474915 L 6.695280075073242 1.076005816459656 Z" stroke="none"/>
          <path d="M 0 -4.172325134277344e-06 L 0.01189994812011719 0.3452358543872833 L 6.177119731903076 0.5578358769416809 L 6.165209770202637 0.2125958502292633 L 0 -4.172325134277344e-06 M -3.480911254882813e-05 -1.000008583068848 C 0.01146173477172852 -1.000008583068848 0.02292919158935547 -0.9998117089271545 0.03446006774902344 -0.9994141459465027 L 6.19966983795166 -0.7868141531944275 C 6.724909782409668 -0.7686941027641296 7.146499633789063 -0.3471141457557678 7.164619922637939 0.1781158447265625 L 7.176529884338379 0.5233558416366577 C 7.186079978942871 0.8003758192062378 7.080229759216309 1.068935871124268 6.88422966003418 1.264935851097107 C 6.696376800537109 1.452789068222046 6.441877841949463 1.557840347290039 6.17715311050415 1.557840347290039 C 6.165672779083252 1.557840347290039 6.154174327850342 1.557642817497253 6.142659664154053 1.557245850563049 L -0.02256011962890625 1.344645857810974 C -0.5478100776672363 1.326525926589966 -0.9693999290466309 0.9049258232116699 -0.9875102043151855 0.3796858489513397 L -0.9994101524353027 0.03444588184356689 C -1.008950233459473 -0.242574155330658 -0.9031000137329102 -0.5111241936683655 -0.7070999145507813 -0.7071141600608826 C -0.519258975982666 -0.8949554562568665 -0.264732837677002 -1.000008583068848 -3.480911254882813e-05 -1.000008583068848 Z" stroke="none"/>
        </g>
      </g>
    </g>
  </g>
</svg>
