<svg xmlns="http://www.w3.org/2000/svg" width="60.859" height="60.859" viewBox="0 0 60.859 60.859">
  <path id="qr-white" d="M30.429,7.132v4.755H25.675V7.132ZM25.675,35.065V41.84h4.755V35.065ZM39.939,60.859V56.1H35.184V51.35H30.429v9.509Zm9.509-35.3H35.184v4.755H49.448Zm0,9.509H56.1V30.311H49.448Zm0,6.775V46.6H60.859V35.065H56.1V41.84ZM35.184,0H30.429V7.132h4.755ZM30.429,21.4h4.755V11.887H30.429v4.755H25.675V30.311h4.755ZM0,25.556v9.509H4.755V30.311h7.132V25.556Zm35.184,9.509V30.311H30.429v4.755Zm9.509,4.755h4.755V35.065H44.693ZM56.1,30.311h4.755V25.556H56.1ZM39.939,35.065H35.184V41.84H30.429V46.6h9.509ZM25.675,51.35h4.755V46.6H25.675ZM39.939,46.6V51.35h9.509V46.6ZM54.2,56.1V51.35H49.448V56.1Zm6.656,4.755V56.1H54.2v4.755Zm-16.166,0h4.755V56.1H44.693ZM21.4,30.311V25.556H16.641v4.755H11.887v4.755H25.675V30.311Zm0-8.915H0V0H21.4ZM16.641,4.755H4.755V16.641H16.641ZM13.075,8.321H8.321v4.755h4.755ZM60.859,0V21.4h-21.4V0ZM56.1,4.755H44.218V16.641H56.1ZM52.538,8.321H47.784v4.755h4.755ZM0,39.463H21.4v21.4H0ZM4.755,56.1H16.641V44.218H4.755Zm3.566-3.566h4.755V47.784H8.321Zm0,0" fill="#fff"/>
</svg>
