<svg xmlns="http://www.w3.org/2000/svg" width="150.678" height="150.677" viewBox="0 0 150.678 150.677">
  <path id="qrcode-big" d="M75.339,17.658V29.429H63.567V17.658ZM63.567,86.816v16.775H75.339V86.816Zm35.315,63.861V138.906H87.11V127.134H75.339v23.543Zm23.543-87.4H87.11V75.044h35.315Zm0,23.543h16.48V75.044h-16.48Zm0,16.775v11.772h28.252V86.816H138.906v16.775ZM87.11,0H75.339V17.658H87.11ZM75.339,52.973H87.11V29.429H75.339V41.2H63.567V75.044H75.339ZM0,63.273V86.816H11.772V75.044H29.429V63.273ZM87.11,86.816V75.044H75.339V86.816Zm23.543,11.772h11.772V86.816H110.654Zm28.252-23.543h11.772V63.273H138.906ZM98.882,86.816H87.11v16.775H75.339v11.772H98.882ZM63.567,127.134H75.339V115.362H63.567Zm35.315-11.772v11.772h23.543V115.362ZM134.2,138.906V127.134H122.425v11.772Zm16.48,11.772V138.906H134.2v11.772Zm-40.024,0h11.772V138.906H110.654ZM52.973,75.044V63.273H41.2V75.044H29.429V86.816H63.567V75.044Zm0-22.072H0V0H52.973ZM41.2,11.772H11.772V41.2H41.2ZM32.372,20.6H20.6V32.372H32.372ZM150.677,0V52.973H97.7V0ZM138.906,11.772H109.477V41.2h29.429ZM130.077,20.6H118.305V32.372h11.772ZM0,97.7H52.973v52.973H0Zm11.772,41.2H41.2V109.477H11.772Zm8.829-8.829H32.372V118.305H20.6Zm0,0"/>
</svg>
