<svg xmlns="http://www.w3.org/2000/svg" width="33.168" height="16.624" viewBox="0 0 33.168 16.624">
  <g id="squares-orange" transform="translate(1788.395 -1495.159)">
    <path id="Path_499" data-name="Path 499" d="M.889,0h9.956c.491,0,.889.175.889.39V11.344c0,.215-.4.39-.889.39H.889c-.491,0-.889-.175-.889-.39V.39C0,.175.4,0,.889,0Z" transform="translate(-1788.395 1503.475) rotate(-45)" fill="#ff8933" opacity="0.7"/>
    <path id="Path_500" data-name="Path 500" d="M.889,0h9.956c.491,0,.889.175.889.39V11.344c0,.215-.4.39-.889.39H.889c-.491,0-.889-.175-.889-.39V.39C0,.175.4,0,.889,0Z" transform="translate(-1780.087 1503.486) rotate(-45)" fill="#ff8933" opacity="0.7"/>
    <path id="Path_501" data-name="Path 501" d="M.889,0h9.956c.491,0,.889.175.889.39V11.344c0,.215-.4.39-.889.39H.889c-.491,0-.889-.175-.889-.39V.39C0,.175.4,0,.889,0Z" transform="translate(-1771.821 1503.456) rotate(-45)" fill="#ff8933" opacity="0.7"/>
  </g>
</svg>
