<svg xmlns="http://www.w3.org/2000/svg" width="196" height="149.829" viewBox="0 0 196 149.829">
  <path id="decoration-right" d="M1031.519,379.983c.36-10.273,4.726-18.194,11.389-25.274,13.143-13.96,30.658-20.759,48.652-24.966,22.17-5.184,20.732-29.841,43.641-42.732,17.919-10.083,23.232-.594,35.971,5.706,15.09,7.467,21.566-3.036,30.706-9.139,8.753-5.845,16.908-9.553,22.489.56a23.668,23.668,0,0,1,2.69,12.871c-1.506,26.838-20.769,31.438-41.3,34.967-26.655,4.577-32.788,30.933-42.654,47.94-7.131,12.295-21.142,26.068-34.356,20.494a41.825,41.825,0,0,0-6.582-1.886c-3.7-.885-6.734.305-8.915,3.749-7.918,12.5-14.544,24.26-28.338,25.315-14.055,1.072-26.316-12.844-31.4-26.424C1029.921,391.606,1031.367,384.3,1031.519,379.983Z" transform="translate(-1031.103 -277.817)" fill="#ff8933"/>
</svg>
