<svg xmlns="http://www.w3.org/2000/svg" width="236.803" height="211.854" viewBox="0 0 236.803 211.854">
  <path id="decoration-2" d="M712.244,175.58c-2.5,4.687-5.068,9.329-7.617,13.987-17.169,31.418-13.215,78.708-3.173,111.7,2.193,7.2,4.311,14.452,5.875,21.826,4.776,22.49-17.055,43.489-35.11,33.14a35.062,35.062,0,0,1-16.313-19.683c-14.877-44.618-9.9-87.761-7.107-127.578a309.1,309.1,0,0,1,6.667-43.8,104.361,104.361,0,0,1,13.888-33.423c4.781-7.6,11.126-13.3,19.51-15.942C704.924,110.764,735.837,131.3,712.244,175.58Z" transform="translate(-495.775 487.764) rotate(-51)" fill="#ff8933"/>
</svg>
